<svg id="Layer_1" data-name="Layer 1" xmlns="http://www.w3.org/2000/svg" xmlns:xlink="http://www.w3.org/1999/xlink" viewBox="0 0 1054.85 1973.02"><defs><linearGradient id="Dégradé_sans_nom_14" x1="593.02" y1="2985.86" x2="593.02" y2="-287.17" gradientUnits="userSpaceOnUse"><stop offset="0" stop-color="#0ea5e9"/><stop offset="1" stop-color="#0c4a6e"/></linearGradient></defs><title>brandgenie_logo</title><g id="Layer_1-2" data-name="Layer_1"><g id="_1546982095584" data-name=" 1546982095584"><path d="M899.06,809.93q98.41,41.36,181.71,168.33,65,117.46,23.55,237.6c-19.65,57-83.87,142.41-150.44,150.89-92.16,11.73-153.82-67.26-246.11-133.55-65.31-46.91-151.32-87-250.62-86.26,259.78,33.51,329.3,246.49,461.07,245.36-57,27.14-114.15,65.06-175.06,108.22l-11,7.8c-168.55,137.17-197.88,216.5-169.9,250.8,27.51,33.74,109-9.22,167.38-38,79.64-39.25,212.65-52.48,219.74,67.25,3,51-22,102.87-80.83,105.92-38.11,2-91.42,13.38-118.71,30.71-30.25,19.2-30.41,46.38,17,91.26-73.5-45-79.34-91.39-62.85-110.06,31.85-36.06,96-11.42,107.54-50.69,5.66-19.31-11.53-46.16-79.57-47.47-42.52-.83-119,21.5-190.46,12.29-77.19-9.94-175.88-55.43-218-388-3-15.89-4.71-30.16-4.91-42.35v-.1h0c0-2.7,0-5.3.08-7.79,136.49-8.61,191.78-60,217.24-84.85-58,40.12-168.94,89.15-285,65.21-69.35-14.31-120.21-51.8-150.45-102.89-103.07-174.15,38.94-364.22,211-445.13a105.37,105.37,0,0,1,86.06-44.81h26.11q6.38-43-8.29-67.67c-13.23-22.26-25-16.47-34.3-27.84-18.58-22.63-24.66-58.8,7.07-138.16q-3.58-104.54-48-163.06c-15.49-20.41-14.92-32.58,14.65-22.73q36.88,12.28,74.26,54.94c31.8-56.87,89.95-101.63,152.73-115.78-11.28-23-6.09-41.47,15.08-52.91-9.84-96.79,31.64-174,88.7-189.4,27.67-7.48,70.34-5.91,90.92,25.45q40.3,61.44,109.7,67.86c-50.64,13.5-92.78,19.88-119.21,4.13-68.87-41-124-8.91-134.58,93.5,19,15.47,22.49,38.65,9.71,52.13q97.65,34.17,142.87,115,37.53-42.84,74.58-55c16.38-5.39,24.2-4,26.22-.13,1.89,3.64-1.19,9.17-10.72,21.44Q829.4,430,825.76,535.94c31.73,79.36,25.65,115.53,7.07,138.16-9.34,11.37-21.07,5.58-34.3,27.84q-14.67,24.69-8.29,67.67h26.11a105.28,105.28,0,0,1,82.71,40.32Z" transform="translate(-65.6 -43.27)" style="fill-rule:evenodd;fill:url(#Dégradé_sans_nom_14)"/></g></g></svg>